<svg width="727" height="726" viewBox="0 0 727 726" fill="none" xmlns="http://www.w3.org/2000/svg">
<path d="M466.33 260.349C520.117 314.135 553.65 377.96 564.404 437.653C575.158 497.347 563.127 552.858 525.866 590.119C488.605 627.38 433.095 639.41 373.4 628.656C313.708 617.903 249.883 584.369 196.096 530.583C142.31 476.796 108.776 412.971 98.0228 353.279C87.2687 293.584 99.2995 238.074 136.56 200.813C173.821 163.552 229.332 151.521 289.026 162.275C348.719 173.029 412.544 206.562 466.33 260.349Z" stroke="#EBECF0"/>
<path d="M498.597 228.082C552.384 281.868 585.917 345.694 596.671 405.386C607.425 465.08 595.394 520.591 558.133 557.852C520.872 595.113 465.362 607.144 405.667 596.39C345.975 585.636 282.15 552.103 228.363 498.316C174.577 444.53 141.043 380.705 130.29 321.012C119.536 261.318 131.566 205.807 168.827 168.546C206.088 131.285 261.599 119.255 321.293 130.009C380.986 140.762 444.811 174.296 498.597 228.082Z" stroke="#EBECF0"/>
<path d="M530.864 195.815C584.651 249.602 618.184 313.427 628.938 373.119C639.692 432.814 627.661 488.324 590.4 525.585C553.139 562.846 497.628 574.877 437.934 564.123C378.242 553.369 314.416 519.836 260.63 466.049C206.844 412.263 173.31 348.438 162.557 288.745C151.803 229.051 163.833 173.54 201.094 136.279C238.355 99.0185 293.866 86.9877 353.56 97.7418C413.253 108.495 477.078 142.029 530.864 195.815Z" stroke="#EBECF0"/>
</svg>
